<?xml version="1.0" encoding="utf-8"?>
<!-- Generator: Adobe Illustrator 22.1.0, SVG Export Plug-In . SVG Version: 6.00 Build 0)  -->
<svg version="1.1" xmlns="http://www.w3.org/2000/svg" xmlns:xlink="http://www.w3.org/1999/xlink" x="0px" y="0px"
	 viewBox="0 0 261.071 98.079" style="enable-background:new 0 0 261.071 98.079;" xml:space="preserve">
<style type="text/css">
	.st0{fill:#0A0A0A;}
	.st1{fill:#EC1A62;}
	.st2{display:none;}
</style>
<g id="Ebene_1">
	<path class="st0" d="M41.528,49.136c-0.881,2.864-4.847,5.726-11.015,5.726c-9.143,0-12.778-5.068-12.778-19.939
		c0-15.642,3.084-19.612,12.557-19.612c5.288,0,9.474,2.203,11.236,5.067V49.136z M58.602,85.039V1.213L47.587,1.212L45.604,7.27
		C40.977,2.533,34.588,0,26.547,0C8.812,0,0,12.121,0,34.923c0,24.013,10.575,34.262,26.106,34.262
		c6.389,0,11.456-1.656,15.422-4.74l0.22,0.111l-0.22,8.697v11.786L58.602,85.039z"/>
	<rect x="139.235" y="1.213" class="st1" width="49.465" height="14.74"/>
	<path class="st0" d="M152.787,56.661c0.771-9.694,3.965-13.549,12.227-13.549c7.16,0,11.566,3.745,11.786,13.549H152.787z
		 M168.759,98.079c8.482,0,16.193-1.762,21.811-4.296l-1.873-13.769c-5.728,2.203-11.566,3.304-17.845,3.304
		c-11.456,0-16.854-4.186-17.735-15.311h38.885c0.33-2.313,0.44-5.508,0.44-8.041c0-21.15-10.464-31.064-27.538-31.064
		c-20.049,0-29.412,12.447-29.412,33.707C135.492,85.962,145.737,98.079,168.759,98.079"/>
	<path class="st0" d="M217.67,34.645c0-16.227,3.415-20.611,12.888-20.611c9.363,0,12.778,4.383,12.778,20.611
		s-2.939,20.608-12.302,20.608C221.67,55.253,217.67,50.982,217.67,34.645z M261.071,34.645c0-24.34-9.253-34.645-30.513-34.645
		c-21.15,0-30.623,10.305-30.623,34.645c0,24.45,9.473,34.532,30.623,34.532C251.818,69.177,261.071,59.095,261.071,34.645z"/>
	<path class="st0" d="M127.008,1.212h-17.074v42.85c0,6.829-3.525,10.024-11.016,10.024c-7.49,0-11.015-3.415-11.015-10.024V1.212
		H70.829v43.18c0,15.862,9.143,24.785,28.089,24.785c18.947,0,28.09-8.592,28.09-24.785V1.212z"/>
</g>
<g id="Raster" class="st2">
</g>
</svg>
