<?xml version="1.0" encoding="UTF-8" standalone="no"?>
<!-- Generator: Adobe Illustrator 23.0.6, SVG Export Plug-In . SVG Version: 6.00 Build 0)  -->

<svg
   xmlns:dc="http://purl.org/dc/elements/1.1/"
   xmlns:cc="http://creativecommons.org/ns#"
   xmlns:rdf="http://www.w3.org/1999/02/22-rdf-syntax-ns#"
   xmlns:svg="http://www.w3.org/2000/svg"
   xmlns="http://www.w3.org/2000/svg"
   xmlns:sodipodi="http://sodipodi.sourceforge.net/DTD/sodipodi-0.dtd"
   xmlns:inkscape="http://www.inkscape.org/namespaces/inkscape"
   version="1.1"
   id="Ebene_1"
   x="0px"
   y="0px"
   viewBox="0 0 445 25.000001"
   xml:space="preserve"
   sodipodi:docname="logo-bearbeitet.svg"
   inkscape:version="0.92.0 r15299"
   width="445"
   height="25"><metadata
     id="metadata4752"><rdf:RDF><cc:Work
         rdf:about=""><dc:format>image/svg+xml</dc:format><dc:type
           rdf:resource="http://purl.org/dc/dcmitype/StillImage" /><dc:title></dc:title></cc:Work></rdf:RDF></metadata><defs
     id="defs4750" /><sodipodi:namedview
     pagecolor="#ffffff"
     bordercolor="#666666"
     borderopacity="1"
     objecttolerance="10"
     gridtolerance="10"
     guidetolerance="10"
     inkscape:pageopacity="0"
     inkscape:pageshadow="2"
     inkscape:window-width="1664"
     inkscape:window-height="881"
     id="namedview4748"
     showgrid="false"
     inkscape:zoom="1.6934021"
     inkscape:cx="231.6682"
     inkscape:cy="-42.157116"
     inkscape:window-x="0"
     inkscape:window-y="0"
     inkscape:window-maximized="0"
     inkscape:current-layer="Ebene_1"
     inkscape:pagecheckerboard="true"
     inkscape:snap-page="true" /><style
     type="text/css"
     id="style4646">
	.st0{fill:#262626;}
	.st1{fill:#FFFFFF;}
</style><g
     id="g5343"
     transform="translate(-9.3,-10.9)"><g
       id="g4669"><rect
         id="rect4651"
         height="24.6"
         width="4"
         class="st1"
         y="10.9"
         x="24.700001"
         style="fill:#ffffff" /><polygon
         id="polygon4653"
         points="9.3,30.7 13.3,28.1 13.3,10.9 9.3,10.9 "
         class="st1"
         style="fill:#ffffff" /><polygon
         id="polygon4655"
         points="14.5,27.3 18.5,24.7 18.5,10.9 14.5,10.9 "
         class="st1"
         style="fill:#ffffff" /><polygon
         id="polygon4657"
         points="19.6,24 23.6,21.4 23.6,10.9 19.6,10.9 "
         class="st1"
         style="fill:#ffffff" /><polygon
         id="polygon4659"
         points="29.8,17.3 33.9,14.7 33.9,10.9 29.8,10.9 "
         class="st1"
         style="fill:#ffffff" /><polygon
         id="polygon4661"
         points="29.8,35.5 33.9,35.5 33.9,19.5 29.8,22.1 "
         class="st1"
         style="fill:#ffffff" /><polygon
         id="polygon4663"
         points="19.6,35.5 23.6,35.5 23.6,26.2 19.6,28.8 "
         class="st1"
         style="fill:#ffffff" /><polygon
         id="polygon4665"
         points="14.5,35.5 18.5,35.5 18.5,29.5 14.5,32.1 "
         class="st1"
         style="fill:#ffffff" /><polygon
         id="polygon4667"
         points="13.3,32.8 9.3,35.4 13.3,35.5 "
         class="st1"
         style="fill:#ffffff" /></g><g
       id="g4745"><path
         id="path4675"
         d="M 48.8,35.5 V 19.7 h 2.4 l 5.5,13.5 -0.2,-13.5 h 1.7 V 35.5 H 56 l -5.6,-13.9 0.1,13.9 z"
         class="st1"
         inkscape:connector-curvature="0"
         style="fill:#ffffff" /><path
         id="path4677"
         d="M 61,35.5 V 19.7 h 7.8 v 1.6 h -6.1 v 5.1 h 5.7 V 28 h -5.7 v 5.8 h 6.2 v 1.7 z"
         class="st1"
         inkscape:connector-curvature="0"
         style="fill:#ffffff" /><path
         id="path4679"
         d="m 71.3,19.7 h 1.8 v 10.6 c 0,1.5 0.2,2.5 0.6,3.1 0.4,0.6 1.1,0.9 2.1,0.9 1,0 1.8,-0.3 2.3,-1 0.5,-0.7 0.7,-1.6 0.7,-3 V 19.7 h 1.7 V 30 c 0,1.3 -0.1,2.3 -0.2,2.8 -0.2,0.6 -0.4,1 -0.8,1.5 -0.4,0.5 -1,0.9 -1.6,1.2 -0.6,0.3 -1.4,0.4 -2.2,0.4 -0.8,0 -1.6,-0.1 -2.2,-0.4 -0.6,-0.3 -1.2,-0.7 -1.6,-1.2 -0.3,-0.4 -0.5,-0.8 -0.6,-1.4 -0.1,-0.6 -0.2,-1.5 -0.2,-2.8 V 19.7 Z"
         class="st1"
         inkscape:connector-curvature="0"
         style="fill:#ffffff" /><path
         id="path4681"
         d="M 82.9,30.5 V 28.6 H 88 v 1.9 z"
         class="st1"
         inkscape:connector-curvature="0"
         style="fill:#ffffff" /><path
         id="path4683"
         d="M 90.4,35.5 V 19.7 h 4.5 c 1.8,0 3.1,0.6 4,1.8 0.9,1.2 1.3,3.1 1.3,5.6 0,1.8 -0.1,3.2 -0.4,4.4 -0.3,1.2 -0.7,2.1 -1.4,2.7 -0.4,0.5 -0.9,0.8 -1.4,1 -0.5,0.2 -1.3,0.3 -2.4,0.3 z m 1.7,-1.6 h 2.3 c 0.7,0 1.3,-0.1 1.7,-0.2 0.4,-0.2 0.7,-0.4 1,-0.7 0.4,-0.5 0.6,-1.2 0.8,-2 0.2,-0.8 0.2,-1.9 0.2,-3.4 0,-2.5 -0.3,-4.3 -0.8,-5.1 -0.5,-0.8 -1.5,-1.3 -3,-1.3 h -2.2 z"
         class="st1"
         inkscape:connector-curvature="0"
         style="fill:#ffffff" /><path
         id="path4685"
         d="M 102.6,35.5 V 19.7 h 7.8 v 1.6 h -6.1 v 5.1 H 110 V 28 h -5.7 v 5.8 h 6.2 v 1.7 z"
         class="st1"
         inkscape:connector-curvature="0"
         style="fill:#ffffff" /><path
         id="path4687"
         d="m 112.5,30.4 h 1.7 V 31 c 0,1.1 0.2,1.9 0.7,2.4 0.5,0.5 1.2,0.8 2.2,0.8 0.9,0 1.6,-0.3 2.1,-0.8 0.5,-0.5 0.7,-1.3 0.7,-2.2 0,-0.7 -0.2,-1.3 -0.5,-1.7 -0.3,-0.4 -1,-0.8 -2.1,-1.2 -0.3,-0.1 -0.6,-0.2 -1.1,-0.4 -1.3,-0.5 -2.1,-0.8 -2.3,-1 -0.4,-0.4 -0.8,-0.9 -1,-1.4 -0.2,-0.5 -0.3,-1.2 -0.3,-1.9 0,-1.4 0.4,-2.4 1.1,-3.2 0.8,-0.8 1.8,-1.2 3.2,-1.2 1.3,0 2.3,0.4 3,1.1 0.7,0.7 1.1,1.7 1.1,3 0,0 0,0.1 0,0.2 0,0.1 0,0.2 0,0.2 h -1.6 v -0.2 c 0,-0.9 -0.2,-1.6 -0.7,-2.1 -0.4,-0.5 -1,-0.7 -1.8,-0.7 -0.8,0 -1.5,0.2 -1.9,0.7 -0.5,0.5 -0.7,1.1 -0.7,1.9 0,0.7 0.2,1.3 0.5,1.7 0.3,0.4 1,0.8 2.1,1.2 0.1,0 0.3,0.1 0.6,0.2 1.6,0.6 2.6,1.1 3,1.4 0.4,0.4 0.7,0.8 0.9,1.3 0.2,0.5 0.3,1.1 0.3,1.9 0,1.5 -0.4,2.7 -1.2,3.5 -0.8,0.8 -2,1.3 -3.5,1.3 -1.5,0 -2.6,-0.4 -3.3,-1.2 -0.7,-0.8 -1.1,-2 -1.1,-3.6 0,-0.1 0,-0.1 0,-0.3 -0.1,-0.1 -0.1,-0.2 -0.1,-0.3 z"
         class="st1"
         inkscape:connector-curvature="0"
         style="fill:#ffffff" /><path
         id="path4689"
         d="M 124.1,35.5 V 19.7 h 1.8 v 15.8 z"
         class="st1"
         inkscape:connector-curvature="0"
         style="fill:#ffffff" /><path
         id="path4691"
         d="M 137.1,35.5 137,33.3 c -0.3,0.8 -0.7,1.5 -1.4,1.9 -0.6,0.4 -1.4,0.7 -2.3,0.7 -1.7,0 -3,-0.7 -3.8,-2 -0.8,-1.4 -1.2,-3.5 -1.2,-6.3 0,-2.9 0.4,-4.9 1.3,-6.2 0.8,-1.3 2.2,-1.9 4.1,-1.9 1.4,0 2.5,0.4 3.3,1.3 0.8,0.9 1.2,2.1 1.2,3.6 h -1.7 c 0,-1.1 -0.3,-1.9 -0.8,-2.5 -0.5,-0.6 -1.2,-0.9 -2.1,-0.9 -1.2,0 -2.1,0.5 -2.6,1.6 -0.5,1.1 -0.8,2.9 -0.8,5.6 0,2.1 0.3,3.7 0.8,4.7 0.6,1 1.4,1.5 2.5,1.5 1,0 1.8,-0.4 2.4,-1.2 0.5,-0.8 0.8,-1.9 0.8,-3.5 0,-0.2 0,-0.3 0,-0.4 0,-0.1 0,-0.2 0,-0.3 h -3.6 v -1.6 h 5.3 v 8.2 h -1.3 z"
         class="st1"
         inkscape:connector-curvature="0"
         style="fill:#ffffff" /><path
         id="path4693"
         d="M 141.2,35.5 V 19.7 h 2.4 l 5.5,13.5 -0.2,-13.5 h 1.7 v 15.8 h -2.3 l -5.6,-13.9 0.1,13.9 z"
         class="st1"
         inkscape:connector-curvature="0"
         style="fill:#ffffff" /><path
         id="path4695"
         d="M 158.6,35.5 V 19.7 h 5.1 c 1.6,0 2.7,0.3 3.4,1 0.7,0.7 1,1.8 1,3.4 0,1.6 -0.4,2.7 -1.1,3.5 -0.7,0.8 -1.8,1.1 -3.3,1.1 h -2.1 v 6.7 z m 2.8,-8.9 h 1.2 c 0.9,0 1.6,-0.2 1.9,-0.5 0.4,-0.4 0.6,-1 0.6,-1.8 0,-0.9 -0.2,-1.5 -0.5,-1.8 -0.3,-0.3 -1,-0.5 -1.9,-0.5 h -1.3 z"
         class="st1"
         inkscape:connector-curvature="0"
         style="fill:#ffffff" /><path
         id="path4697"
         d="M 170,35.5 V 19.7 h 5.3 c 1.6,0 2.7,0.3 3.4,1 0.7,0.6 1.1,1.7 1.1,3.2 0,1 -0.2,1.8 -0.6,2.4 -0.4,0.6 -0.9,0.9 -1.7,1 1.4,0.4 2.1,1.5 2.2,3.5 0,0.1 0,0.2 0,0.2 l 0.1,2.1 c 0,0.6 0.1,1.1 0.2,1.4 0.1,0.4 0.3,0.7 0.6,0.9 h -3.5 c -0.1,-0.3 -0.1,-0.6 -0.2,-0.9 0,-0.4 -0.1,-0.9 -0.1,-1.5 v -1.7 -0.4 c 0,-0.9 -0.2,-1.5 -0.6,-1.9 -0.4,-0.4 -1.2,-0.5 -2.4,-0.5 h -1 v 6.9 z m 2.8,-9.2 h 1.7 c 0.9,0 1.4,-0.2 1.8,-0.5 0.4,-0.3 0.5,-1 0.5,-1.8 0,-0.8 -0.2,-1.3 -0.5,-1.7 -0.3,-0.4 -1,-0.5 -2,-0.5 h -1.4 v 4.5 z"
         class="st1"
         inkscape:connector-curvature="0"
         style="fill:#ffffff" /><path
         id="path4699"
         d="m 181.8,27.6 c 0,-1.7 0.1,-3 0.2,-4 0.2,-1 0.4,-1.8 0.7,-2.3 0.5,-0.7 1,-1.2 1.6,-1.5 0.6,-0.3 1.5,-0.5 2.5,-0.5 1,0 1.9,0.2 2.5,0.5 0.6,0.3 1.2,0.8 1.6,1.5 0.3,0.5 0.6,1.3 0.7,2.3 0.1,1 0.2,2.3 0.2,4 0,1.7 -0.1,3 -0.2,4 -0.2,1 -0.4,1.8 -0.7,2.3 -0.5,0.7 -1,1.2 -1.6,1.5 -0.6,0.3 -1.5,0.5 -2.5,0.5 -1,0 -1.9,-0.2 -2.5,-0.5 -0.6,-0.3 -1.2,-0.8 -1.6,-1.5 -0.3,-0.5 -0.6,-1.3 -0.7,-2.3 -0.1,-1 -0.2,-2.4 -0.2,-4 z m 3,0 c 0,2.6 0.2,4.2 0.5,4.9 0.3,0.7 0.9,1 1.7,1 0.8,0 1.4,-0.3 1.7,-1 0.3,-0.7 0.4,-2.3 0.4,-4.9 0,-2.6 -0.1,-4.3 -0.5,-4.9 -0.3,-0.7 -0.9,-1 -1.7,-1 -0.8,0 -1.4,0.3 -1.7,1 -0.2,0.6 -0.4,2.2 -0.4,4.9 z"
         class="st1"
         inkscape:connector-curvature="0"
         style="fill:#ffffff" /><path
         id="path4701"
         d="M 194.4,35.5 V 19.7 h 4.7 c 1,0 1.7,0.1 2.3,0.2 0.6,0.1 1,0.4 1.4,0.8 0.6,0.5 0.9,1.2 1.2,2 0.2,0.8 0.3,2.1 0.3,3.8 0,2.2 -0.1,3.8 -0.2,4.8 -0.2,0.9 -0.4,1.7 -0.8,2.4 -0.4,0.6 -0.9,1.1 -1.5,1.4 -0.6,0.3 -1.8,0.4 -3.4,0.4 0,0 -4,0 -4,0 z m 2.9,-2.4 h 1.3 c 0.7,0 1.1,0 1.4,-0.1 0.3,-0.1 0.5,-0.3 0.6,-0.5 0.3,-0.4 0.5,-1 0.6,-1.7 0.1,-0.7 0.2,-1.9 0.2,-3.4 0,-1.5 -0.1,-2.6 -0.2,-3.3 -0.1,-0.7 -0.4,-1.2 -0.7,-1.6 -0.2,-0.2 -0.4,-0.3 -0.7,-0.4 C 199.5,22 199.1,22 198.5,22 h -1.3 z"
         class="st1"
         inkscape:connector-curvature="0"
         style="fill:#ffffff" /><path
         id="path4703"
         d="m 206.8,19.7 h 2.9 v 10.6 c 0,1.2 0.1,2 0.4,2.5 0.3,0.4 0.8,0.7 1.6,0.7 0.8,0 1.3,-0.2 1.6,-0.7 0.3,-0.5 0.4,-1.3 0.4,-2.5 V 19.7 h 2.9 v 10.9 c 0,1.1 -0.1,1.8 -0.2,2.3 -0.1,0.5 -0.3,0.9 -0.6,1.3 -0.4,0.6 -1,1 -1.7,1.2 -0.7,0.3 -1.5,0.4 -2.5,0.4 -1.8,0 -3.1,-0.4 -3.8,-1.2 -0.7,-0.8 -1.1,-2.1 -1.1,-4.1 V 19.7 Z"
         class="st1"
         inkscape:connector-curvature="0"
         style="fill:#ffffff" /><path
         id="path4705"
         d="M 219.3,35.5 V 19.7 h 2.9 v 6.6 l 3.6,-6.6 h 3.3 l -4,6.6 4.2,9.2 h -3.2 l -2.8,-6.5 -1,1.7 v 4.8 z"
         class="st1"
         inkscape:connector-curvature="0"
         style="fill:#ffffff" /><path
         id="path4707"
         d="M 232.7,35.5 V 22.3 h -3.4 v -2.6 h 9.7 v 2.6 h -3.4 v 13.2 z"
         class="st1"
         inkscape:connector-curvature="0"
         style="fill:#ffffff" /><path
         id="path4709"
         d="M 240.5,35.5 V 19.7 h 2.9 v 15.8 z"
         class="st1"
         inkscape:connector-curvature="0"
         style="fill:#ffffff" /><path
         id="path4711"
         d="m 245.9,27.6 c 0,-1.7 0.1,-3 0.2,-4 0.2,-1 0.4,-1.8 0.7,-2.3 0.5,-0.7 1,-1.2 1.6,-1.5 0.6,-0.3 1.5,-0.5 2.5,-0.5 1,0 1.9,0.2 2.5,0.5 0.6,0.3 1.2,0.8 1.6,1.5 0.3,0.5 0.6,1.3 0.7,2.3 0.1,1 0.2,2.3 0.2,4 0,1.7 -0.1,3 -0.2,4 -0.2,1 -0.4,1.8 -0.7,2.3 -0.5,0.7 -1,1.2 -1.6,1.5 -0.6,0.3 -1.5,0.5 -2.5,0.5 -1,0 -1.9,-0.2 -2.5,-0.5 -0.6,-0.3 -1.2,-0.8 -1.6,-1.5 -0.3,-0.5 -0.6,-1.3 -0.7,-2.3 -0.2,-1 -0.2,-2.4 -0.2,-4 z m 3,0 c 0,2.6 0.2,4.2 0.5,4.9 0.3,0.7 0.9,1 1.7,1 0.8,0 1.4,-0.3 1.7,-1 0.3,-0.7 0.4,-2.3 0.4,-4.9 0,-2.6 -0.1,-4.3 -0.5,-4.9 -0.3,-0.7 -0.9,-1 -1.7,-1 -0.8,0 -1.4,0.3 -1.7,1 -0.3,0.6 -0.4,2.2 -0.4,4.9 z"
         class="st1"
         inkscape:connector-curvature="0"
         style="fill:#ffffff" /><path
         id="path4713"
         d="M 258.5,35.5 V 19.7 h 3 l 4.1,11 -0.1,-11 h 2.8 v 15.8 h -3 l -4.1,-11.1 0.1,11.1 z"
         class="st1"
         inkscape:connector-curvature="0"
         style="fill:#ffffff" /><path
         id="path4715"
         d="m 270.7,29.9 h 2.9 v 1 c 0,1 0.1,1.6 0.4,2 0.2,0.4 0.7,0.5 1.3,0.5 0.6,0 1.1,-0.2 1.4,-0.5 0.3,-0.3 0.5,-0.8 0.5,-1.4 0,-0.5 -0.1,-0.9 -0.3,-1.2 -0.2,-0.3 -0.7,-0.8 -1.5,-1.3 l -1.5,-1.1 c -1.3,-0.9 -2.1,-1.6 -2.5,-2.2 -0.4,-0.6 -0.5,-1.3 -0.5,-2.2 0,-1.3 0.4,-2.4 1.2,-3.1 0.8,-0.7 1.9,-1.1 3.3,-1.1 1.5,0 2.6,0.4 3.4,1.2 0.8,0.8 1.2,1.9 1.2,3.4 0,0.2 0,0.3 0,0.3 v 0.2 h -3 V 24 c 0,-0.9 -0.1,-1.5 -0.4,-1.8 -0.3,-0.3 -0.7,-0.6 -1.4,-0.6 -0.5,0 -0.8,0.1 -1.1,0.4 -0.3,0.3 -0.4,0.7 -0.4,1.2 0,0.7 0.6,1.4 1.8,2.2 v 0 l 1.6,1.1 c 1.2,0.8 1.9,1.5 2.3,2.2 0.4,0.7 0.6,1.5 0.6,2.6 0,1.4 -0.4,2.5 -1.2,3.3 -0.8,0.8 -2,1.2 -3.5,1.2 -1.6,0 -2.8,-0.4 -3.5,-1.2 -0.8,-0.8 -1.2,-2.1 -1.2,-3.8 0.1,-0.1 0.1,-0.4 0.1,-0.9 z"
         class="st1"
         inkscape:connector-curvature="0"
         style="fill:#ffffff" /><path
         id="path4717"
         d="m 282.2,29.9 h 2.9 v 1 c 0,1 0.1,1.6 0.4,2 0.2,0.4 0.7,0.5 1.3,0.5 0.6,0 1.1,-0.2 1.4,-0.5 0.3,-0.3 0.5,-0.8 0.5,-1.4 0,-0.5 -0.1,-0.9 -0.3,-1.2 -0.2,-0.3 -0.7,-0.8 -1.5,-1.3 l -1.5,-1.1 c -1.3,-0.9 -2.1,-1.6 -2.5,-2.2 -0.4,-0.6 -0.5,-1.3 -0.5,-2.2 0,-1.3 0.4,-2.4 1.2,-3.1 0.8,-0.7 1.9,-1.1 3.3,-1.1 1.5,0 2.6,0.4 3.4,1.2 0.8,0.8 1.2,1.9 1.2,3.4 0,0.2 0,0.3 0,0.3 v 0.2 h -2.8 V 24 c 0,-0.9 -0.1,-1.5 -0.4,-1.8 -0.3,-0.3 -0.7,-0.6 -1.4,-0.6 -0.5,0 -0.8,0.1 -1.1,0.4 -0.3,0.3 -0.4,0.7 -0.4,1.2 0,0.7 0.6,1.4 1.8,2.2 v 0 l 1.6,1.1 c 1.2,0.8 1.9,1.5 2.3,2.2 0.4,0.7 0.6,1.5 0.6,2.6 0,1.4 -0.4,2.5 -1.2,3.3 -0.8,0.8 -2,1.2 -3.5,1.2 -1.6,0 -2.8,-0.4 -3.5,-1.2 -0.8,-0.8 -1.2,-2.1 -1.2,-3.8 -0.1,-0.1 -0.1,-0.4 -0.1,-0.9 z"
         class="st1"
         inkscape:connector-curvature="0"
         style="fill:#ffffff" /><path
         id="path4719"
         d="m 297,35.5 v -6.7 l -4.1,-9.1 h 3.3 l 2.4,5.9 2.4,-5.9 h 3.2 l -4.1,9.1 v 6.7 z"
         class="st1"
         inkscape:connector-curvature="0"
         style="fill:#ffffff" /><path
         id="path4721"
         d="m 305.3,29.9 h 2.9 v 1 c 0,1 0.1,1.6 0.4,2 0.2,0.4 0.7,0.5 1.3,0.5 0.6,0 1.1,-0.2 1.4,-0.5 0.3,-0.3 0.5,-0.8 0.5,-1.4 0,-0.5 -0.1,-0.9 -0.3,-1.2 C 311.3,30 310.8,29.5 310,29 l -1.5,-1.1 c -1.3,-0.9 -2.1,-1.6 -2.5,-2.2 -0.4,-0.6 -0.5,-1.3 -0.5,-2.2 0,-1.3 0.4,-2.4 1.2,-3.1 0.8,-0.7 1.9,-1.1 3.3,-1.1 1.5,0 2.6,0.4 3.4,1.2 0.8,0.8 1.2,1.9 1.2,3.4 0,0.2 0,0.3 0,0.3 v 0.2 h -2.8 V 24 c 0,-0.9 -0.1,-1.5 -0.4,-1.8 -0.3,-0.3 -0.7,-0.6 -1.4,-0.6 -0.5,0 -0.8,0.1 -1.1,0.4 -0.3,0.3 -0.4,0.7 -0.4,1.2 0,0.7 0.6,1.4 1.8,2.2 v 0 l 1.6,1.1 c 1.2,0.8 1.9,1.5 2.3,2.2 0.4,0.7 0.6,1.5 0.6,2.6 0,1.4 -0.4,2.5 -1.2,3.3 -0.8,0.8 -2,1.2 -3.5,1.2 -1.6,0 -2.8,-0.4 -3.5,-1.2 -0.8,-0.8 -1.2,-2.1 -1.2,-3.8 -0.2,-0.1 -0.2,-0.4 -0.1,-0.9 z"
         class="st1"
         inkscape:connector-curvature="0"
         style="fill:#ffffff" /><path
         id="path4723"
         d="M 319.3,35.5 V 22.3 h -3.4 v -2.6 h 9.7 v 2.6 h -3.4 v 13.2 z"
         class="st1"
         inkscape:connector-curvature="0"
         style="fill:#ffffff" /><path
         id="path4725"
         d="M 327.2,35.5 V 19.7 h 8.1 v 2.6 h -5.2 V 26 h 4.8 v 2.5 h -4.8 v 4.3 h 5.3 v 2.7 c 0,0 -8.2,0 -8.2,0 z"
         class="st1"
         inkscape:connector-curvature="0"
         style="fill:#ffffff" /><path
         id="path4727"
         d="M 337.6,35.5 V 19.7 h 4.4 l 2.2,10.2 2.2,-10.2 h 4.4 V 35.5 H 348 l 0.1,-14 -2.9,14 h -1.8 l -2.9,-14 0.1,14 z"
         class="st1"
         inkscape:connector-curvature="0"
         style="fill:#ffffff" /><path
         id="path4729"
         d="M 353.5,35.5 V 19.7 h 8.1 v 2.6 h -5.2 V 26 h 4.8 v 2.5 h -4.8 v 4.3 h 5.3 v 2.7 c 0,0 -8.2,0 -8.2,0 z"
         class="st1"
         inkscape:connector-curvature="0"
         style="fill:#ffffff" /><path
         id="path4731"
         d="m 372.2,35.5 -4.4,-15.8 h 1.9 l 3.5,13.6 3.7,-13.6 h 1.8 l -4.3,15.8 c 0,0 -2.2,0 -2.2,0 z"
         class="st1"
         inkscape:connector-curvature="0"
         style="fill:#ffffff" /><path
         id="path4733"
         d="M 380.2,35.5 V 19.7 h 1.8 v 15.8 z"
         class="st1"
         inkscape:connector-curvature="0"
         style="fill:#ffffff" /><path
         id="path4735"
         d="m 384.5,30.4 h 1.7 V 31 c 0,1.1 0.2,1.9 0.7,2.4 0.5,0.5 1.2,0.8 2.2,0.8 0.9,0 1.6,-0.3 2.1,-0.8 0.5,-0.5 0.7,-1.3 0.7,-2.2 0,-0.7 -0.2,-1.3 -0.5,-1.7 -0.3,-0.4 -1,-0.8 -2.1,-1.2 -0.3,-0.1 -0.6,-0.2 -1.1,-0.4 -1.3,-0.5 -2.1,-0.8 -2.3,-1 -0.4,-0.4 -0.8,-0.9 -1,-1.4 -0.2,-0.5 -0.3,-1.2 -0.3,-1.9 0,-1.4 0.4,-2.4 1.1,-3.2 0.8,-0.8 1.8,-1.2 3.2,-1.2 1.3,0 2.3,0.4 3,1.1 0.7,0.7 1.1,1.7 1.1,3 0,0 0,0.1 0,0.2 0,0.1 0,0.2 0,0.2 h -1.6 v -0.2 c 0,-0.9 -0.2,-1.6 -0.7,-2.1 -0.4,-0.5 -1,-0.7 -1.8,-0.7 -0.8,0 -1.5,0.2 -1.9,0.7 -0.5,0.5 -0.7,1.1 -0.7,1.9 0,0.7 0.2,1.3 0.5,1.7 0.3,0.4 1,0.8 2.1,1.2 0.1,0 0.3,0.1 0.6,0.2 1.6,0.6 2.6,1.1 3,1.4 0.4,0.4 0.7,0.8 0.9,1.3 0.2,0.5 0.3,1.1 0.3,1.9 0,1.5 -0.4,2.7 -1.2,3.5 -0.8,0.8 -2,1.3 -3.5,1.3 -1.5,0 -2.6,-0.4 -3.3,-1.2 -0.7,-0.8 -1.1,-2 -1.1,-3.6 0,-0.1 0,-0.1 0,-0.3 -0.1,-0.1 -0.1,-0.2 -0.1,-0.3 z"
         class="st1"
         inkscape:connector-curvature="0"
         style="fill:#ffffff" /><path
         id="path4737"
         d="m 409.4,22.9 v 5.5 h 5.4 v 1.4 h -5.4 v 5.5 h -1.5 v -5.5 h -5.4 v -1.4 h 5.4 v -5.5 z"
         class="st1"
         inkscape:connector-curvature="0"
         style="fill:#ffffff" /><path
         id="path4739"
         d="m 423.7,30.4 h 1.7 V 31 c 0,1.1 0.2,1.9 0.7,2.4 0.5,0.5 1.2,0.8 2.2,0.8 0.9,0 1.6,-0.3 2.1,-0.8 0.5,-0.5 0.7,-1.3 0.7,-2.2 0,-0.7 -0.2,-1.3 -0.5,-1.7 -0.3,-0.4 -1,-0.8 -2.1,-1.2 -0.3,-0.1 -0.6,-0.2 -1.1,-0.4 -1.3,-0.5 -2.1,-0.8 -2.3,-1 -0.4,-0.4 -0.8,-0.9 -1,-1.4 -0.2,-0.5 -0.3,-1.2 -0.3,-1.9 0,-1.4 0.4,-2.4 1.1,-3.2 0.8,-0.8 1.8,-1.2 3.2,-1.2 1.3,0 2.3,0.4 3,1.1 0.7,0.7 1.1,1.7 1.1,3 0,0 0,0.1 0,0.2 0,0.1 0,0.2 0,0.2 h -1.6 v -0.2 c 0,-0.9 -0.2,-1.6 -0.7,-2.1 -0.4,-0.5 -1,-0.7 -1.8,-0.7 -0.8,0 -1.5,0.2 -1.9,0.7 -0.5,0.5 -0.7,1.1 -0.7,1.9 0,0.7 0.2,1.3 0.5,1.7 0.3,0.4 1,0.8 2.1,1.2 0.1,0 0.3,0.1 0.6,0.2 1.6,0.6 2.6,1.1 3,1.4 0.4,0.4 0.7,0.8 0.9,1.3 0.2,0.5 0.3,1.1 0.3,1.9 0,1.5 -0.4,2.7 -1.2,3.5 -0.8,0.8 -2,1.3 -3.5,1.3 -1.5,0 -2.6,-0.4 -3.3,-1.2 -0.7,-0.8 -1.1,-2 -1.1,-3.6 0,-0.1 0,-0.1 0,-0.3 -0.1,-0.1 -0.1,-0.2 -0.1,-0.3 z"
         class="st1"
         inkscape:connector-curvature="0"
         style="fill:#ffffff" /><path
         id="path4741"
         d="M 435.3,35.5 V 19.7 h 4.1 c 1.7,0 3,0.4 3.8,1.1 0.8,0.7 1.2,1.8 1.2,3.3 0,1.6 -0.4,2.7 -1.2,3.5 -0.8,0.8 -2,1.2 -3.7,1.2 H 437 v 6.6 z m 1.7,-8.3 h 2.3 c 1.1,0 1.9,-0.3 2.4,-0.8 0.5,-0.5 0.8,-1.3 0.8,-2.4 0,-1 -0.3,-1.7 -0.8,-2.2 -0.5,-0.5 -1.3,-0.7 -2.5,-0.7 H 437 Z"
         class="st1"
         inkscape:connector-curvature="0"
         style="fill:#ffffff" /><path
         id="path4743"
         d="m 443.9,35.5 4.3,-15.8 h 2.2 l 4.4,15.8 H 453 l -1.2,-4.6 h -5 l -1.1,4.6 z m 3.3,-6.2 h 4.2 L 449.3,21 Z"
         class="st1"
         inkscape:connector-curvature="0"
         style="fill:#ffffff" /></g></g></svg>