<?xml version="1.0" encoding="utf-8"?>
<!-- Generator: Adobe Illustrator 23.0.6, SVG Export Plug-In . SVG Version: 6.00 Build 0)  -->
<svg version="1.1" id="Ebene_1" xmlns="http://www.w3.org/2000/svg" xmlns:xlink="http://www.w3.org/1999/xlink" x="0px" y="0px"
	 viewBox="0 0 1024 680" style="enable-background:new 0 0 1024 680;" xml:space="preserve">
<style type="text/css">
	.st0{opacity:0.2;}
	.st1{fill:#BABBBC;}
</style>
<text transform="matrix(1 0 0 1 1056.5104 654.8998)" class="st1" style="font-family:'Myriad-Web'; font-size:12px;">#babbbc</text>
<text transform="matrix(1 0 0 1 1056.5104 669.2998)" class="st1" style="font-family:'Myriad-Web'; font-size:12px;">R186 G187 B188</text>
<g class="st0">
	<polygon class="st1" points="541.4,505.1 541.4,541.2 552.2,541.2 552.2,498.1 	"/>
	<polygon class="st1" points="513.6,523.2 513.6,541.2 524.4,541.2 524.4,516.1 	"/>
	<polygon class="st1" points="583,474.9 583,510.2 593.8,503.2 593.8,474.9 	"/>
	<polygon class="st1" points="610.8,474.9 610.8,492.2 621.6,485.2 621.6,474.9 	"/>
	<polygon class="st1" points="569.1,532.2 569.1,541.2 580,541.2 580,525.1 	"/>
	<polygon class="st1" points="541.4,544.2 541.4,561.6 552.2,554.6 552.2,544.2 	"/>
	<polygon class="st1" points="513.6,592.6 513.6,610.6 524.4,610.6 524.4,585.5 	"/>
	<polygon class="st1" points="569.1,544.2 569.1,588.7 580,581.6 580,544.2 	"/>
	<polygon class="st1" points="583,544.2 583,579.6 593.8,572.6 593.8,544.2 	"/>
	<polygon class="st1" points="610.8,574.5 610.8,610.6 621.6,610.6 621.6,567.5 	"/>
	<rect x="805.1" y="544.2" class="st1" width="10.8" height="66.4"/>
	<polygon class="st1" points="819,574.5 819,610.6 829.8,610.6 829.8,567.5 	"/>
	<polygon class="st1" points="777.3,601.6 777.3,610.6 788.2,610.6 788.2,594.5 	"/>
	<polygon class="st1" points="763.4,610.6 774.3,610.6 774.3,603.5 	"/>
	<polygon class="st1" points="860.6,544.2 860.6,579.6 871.5,572.6 871.5,544.2 	"/>
	<polygon class="st1" points="888.4,574.5 888.4,610.6 899.2,610.6 899.2,567.5 	"/>
	<polygon class="st1" points="846.7,601.6 846.7,610.6 857.6,610.6 857.6,594.5 	"/>
	<polyline class="st1" points="802.1,541.2 802.1,516.1 791.2,523.2 791.2,541.2 	"/>
	<polygon class="st1" points="832.9,541.2 843.7,541.2 843.7,534.2 	"/>
	<polygon class="st1" points="27.8,613.6 27.8,649 38.6,642 38.6,613.6 	"/>
	<polygon class="st1" points="55.5,643.9 55.5,680 66.4,680 66.4,636.9 	"/>
	<polygon class="st1" points="27.8,662 27.8,680 38.6,680 38.6,654.9 	"/>
	<polygon class="st1" points="13.9,671 13.9,680 24.7,680 24.7,663.9 	"/>
	<polygon class="st1" points="0,680 10.9,680 10.9,672.9 	"/>
	<polygon class="st1" points="194.3,613.6 194.3,631 205.2,624 205.2,613.6 	"/>
	<polygon class="st1" points="194.3,643.9 194.3,680 205.2,680 205.2,636.9 	"/>
	<polygon class="st1" points="166.6,662 166.6,680 177.4,680 177.4,654.9 	"/>
	<polygon class="st1" points="152.7,671 152.7,680 163.5,680 163.5,663.9 	"/>
	<polygon class="st1" points="138.8,680 149.7,680 149.7,672.9 	"/>
	<polygon class="st1" points="222.1,613.6 222.1,658 232.9,651 232.9,613.6 	"/>
	<polygon class="st1" points="236,662 236,680 246.8,680 246.8,654.9 	"/>
	<polygon class="st1" points="291.5,613.6 291.5,658 302.3,651 302.3,613.6 	"/>
	<polygon class="st1" points="305.4,613.6 305.4,649 316.2,642 316.2,613.6 	"/>
	<polygon class="st1" points="333.1,613.6 333.1,631 344,624 344,613.6 	"/>
	<polygon class="st1" points="333.1,643.9 333.1,680 344,680 344,636.9 	"/>
	<polygon class="st1" points="291.5,671 291.5,680 302.3,680 302.3,663.9 	"/>
	<polygon class="st1" points="277.6,680 288.5,680 288.5,672.9 	"/>
	<rect x="388.7" y="613.6" class="st1" width="10.8" height="66.4"/>
	<polygon class="st1" points="347,613.6 347,667 357.9,660 357.9,613.6 	"/>
	<polygon class="st1" points="374.8,613.6 374.8,649 385.6,642 385.6,613.6 	"/>
	<polygon class="st1" points="402.5,613.6 402.5,631 413.4,624 413.4,613.6 	"/>
	<polygon class="st1" points="402.5,643.9 402.5,680 413.4,680 413.4,636.9 	"/>
	<polygon class="st1" points="374.8,662 374.8,680 385.6,680 385.6,654.9 	"/>
	<polygon class="st1" points="360.9,671 360.9,680 371.8,680 371.7,663.9 	"/>
	<polygon class="st1" points="347,680 357.9,680 357.9,672.9 	"/>
	<polygon class="st1" points="444.2,613.6 444.2,649 455,642 455,613.6 	"/>
	<polygon class="st1" points="472,613.6 472,631 482.8,624 482.8,613.6 	"/>
	<polygon class="st1" points="472,643.9 472,680 482.8,680 482.8,636.9 	"/>
	<polygon class="st1" points="444.2,662 444.2,680 455,680 455,654.9 	"/>
	<polygon class="st1" points="416.4,680 427.3,680 427.3,672.9 	"/>
	<rect x="527.5" y="613.6" class="st1" width="10.8" height="66.4"/>
	<polygon class="st1" points="499.7,613.6 499.7,658 510.6,651 510.6,613.6 	"/>
	<polygon class="st1" points="513.6,613.6 513.6,649 524.4,642 524.4,613.6 	"/>
	<polygon class="st1" points="541.4,643.9 541.4,680 552.2,680 552.2,636.9 	"/>
	<polygon class="st1" points="513.6,662 513.6,680 524.4,680 524.4,654.9 	"/>
	<polygon class="st1" points="485.8,680 496.7,680 496.7,672.9 	"/>
	<rect x="596.9" y="613.6" class="st1" width="10.8" height="66.4"/>
	<polygon class="st1" points="583,613.6 583,649 593.8,642 593.8,613.6 	"/>
	<polygon class="st1" points="610.8,613.6 610.8,631 621.6,624 621.6,613.6 	"/>
	<polygon class="st1" points="610.8,643.9 610.8,680 621.6,680 621.6,636.9 	"/>
	<polygon class="st1" points="569.1,671 569.1,680 580,680 580,663.9 	"/>
	<polygon class="st1" points="555.2,680 566.1,680 566.1,672.9 	"/>
	<rect x="666.3" y="613.6" class="st1" width="10.8" height="66.4"/>
	<polygon class="st1" points="652.4,613.6 652.4,649 663.2,642 663.2,613.6 	"/>
	<polygon class="st1" points="680.2,613.6 680.2,631 691,624 691,613.6 	"/>
	<polygon class="st1" points="652.4,662 652.4,680 663.2,680 663.2,654.9 	"/>
	<polygon class="st1" points="638.5,671 638.5,680 649.4,680 649.4,663.9 	"/>
	<polygon class="st1" points="624.6,680 635.5,680 635.5,672.9 	"/>
	<rect x="735.7" y="613.6" class="st1" width="10.8" height="66.4"/>
	<polygon class="st1" points="721.8,613.6 721.8,649 732.7,642 732.7,613.6 	"/>
	<polygon class="st1" points="749.6,613.6 749.6,631 760.4,624 760.4,613.6 	"/>
	<polygon class="st1" points="749.6,643.9 749.6,680 760.4,680 760.4,636.9 	"/>
	<polygon class="st1" points="707.9,671 707.9,680 718.8,680 718.8,663.9 	"/>
	<polygon class="st1" points="694,680 704.9,680 704.9,672.9 	"/>
	<polygon class="st1" points="763.5,613.6 763.5,667 774.3,660 774.3,613.6 	"/>
	<polygon class="st1" points="791.2,613.6 791.2,649 802.1,642 802.1,613.6 	"/>
	<polygon class="st1" points="819,613.6 819,631 829.8,624 829.8,613.6 	"/>
	<polygon class="st1" points="819,643.9 819,680 829.8,680 829.8,636.9 	"/>
	<polygon class="st1" points="791.2,662 791.2,680 802.1,680 802.1,654.9 	"/>
	<polygon class="st1" points="777.3,671 777.3,680 788.2,680 788.2,663.9 	"/>
	<polygon class="st1" points="763.4,680 774.3,680 774.3,672.9 	"/>
	<polygon class="st1" points="846.7,613.6 846.7,658 857.6,651 857.6,613.6 	"/>
	<polygon class="st1" points="860.6,613.6 860.6,649 871.5,642 871.5,613.6 	"/>
	<polygon class="st1" points="888.4,613.6 888.4,631 899.2,624 899.2,613.6 	"/>
	<polygon class="st1" points="888.4,643.9 888.4,680 899.2,680 899.2,636.9 	"/>
	<polygon class="st1" points="846.7,671 846.7,680 857.6,680 857.6,663.9 	"/>
	<polygon class="st1" points="832.9,680 843.7,680 843.7,672.9 	"/>
	<polygon class="st1" points="930,613.6 930,649 940.9,642 940.9,613.6 	"/>
	<polygon class="st1" points="957.8,613.6 957.8,631 968.6,624 968.6,613.6 	"/>
	<polygon class="st1" points="930,662 930,680 940.9,680 940.9,654.9 	"/>
	<polygon class="st1" points="916.1,671 916.1,680 927,680 927,663.9 	"/>
	<rect x="1013.3" y="613.6" class="st1" width="10.8" height="66.4"/>
	<polygon class="st1" points="971.7,613.6 971.7,667 982.5,660 982.5,613.6 	"/>
	<polygon class="st1" points="999.4,613.6 999.4,649 1010.3,642 1010.3,613.6 	"/>
	<polygon class="st1" points="999.4,662 999.4,680 1010.3,680 1010.3,654.9 	"/>
	<polygon class="st1" points="985.6,671 985.6,680 996.4,680 996.4,663.9 	"/>
	<polygon class="st1" points="971.7,680 982.5,680 982.5,672.9 	"/>
	<rect x="388.7" y="544.2" class="st1" width="10.8" height="66.4"/>
	<polygon class="st1" points="347,544.2 347,597.6 357.9,590.6 357.9,544.2 	"/>
	<polygon class="st1" points="374.8,544.2 374.8,579.6 385.6,572.6 385.6,544.2 	"/>
	<polygon class="st1" points="402.5,544.2 402.5,561.6 413.4,554.6 413.4,544.2 	"/>
	<polygon class="st1" points="402.5,574.5 402.5,610.6 413.4,610.6 413.4,567.5 	"/>
	<polygon class="st1" points="347,610.6 357.9,610.6 357.9,603.5 	"/>
	<rect x="458.1" y="544.2" class="st1" width="10.8" height="66.4"/>
	<polygon class="st1" points="416.4,544.2 416.4,597.6 427.3,590.6 427.3,544.2 	"/>
	<polygon class="st1" points="444.2,544.2 444.2,579.6 455,572.6 455,544.2 	"/>
	<polygon class="st1" points="472,544.2 472,561.6 482.8,554.6 482.8,544.2 	"/>
	<polygon class="st1" points="444.2,592.6 444.2,610.6 455,610.6 455,585.5 	"/>
	<polygon class="st1" points="416.4,610.6 427.3,610.6 427.3,603.5 	"/>
	<rect x="527.5" y="544.2" class="st1" width="10.8" height="66.4"/>
	<polygon class="st1" points="485.8,544.2 485.8,597.6 496.7,590.6 496.7,544.2 	"/>
	<polygon class="st1" points="513.6,544.2 513.6,579.6 524.4,572.6 524.4,544.2 	"/>
	<polygon class="st1" points="499.7,601.6 499.7,610.6 510.6,610.6 510.6,594.5 	"/>
	<polygon class="st1" points="610.8,544.2 610.8,561.6 621.6,554.6 621.6,544.2 	"/>
	<polygon class="st1" points="583,592.6 583,610.6 593.8,610.6 593.8,585.5 	"/>
	<polygon class="st1" points="569.1,601.6 569.1,610.6 580,610.6 580,594.5 	"/>
	<polygon class="st1" points="555.2,610.6 566.1,610.6 566.1,603.5 	"/>
	<rect x="666.3" y="544.2" class="st1" width="10.8" height="66.4"/>
	<polygon class="st1" points="652.4,544.2 652.4,579.6 663.2,572.6 663.2,544.2 	"/>
	<polygon class="st1" points="680.2,544.2 680.2,561.6 691,554.6 691,544.2 	"/>
	<polygon class="st1" points="680.2,574.5 680.2,610.6 691,610.6 691,567.5 	"/>
	<polygon class="st1" points="638.5,601.6 638.5,610.6 649.4,610.6 649.4,594.5 	"/>
	<polygon class="st1" points="624.6,610.6 635.5,610.6 635.5,603.5 	"/>
	<polygon class="st1" points="694.1,544.2 694.1,597.6 704.9,590.6 704.9,544.2 	"/>
	<polygon class="st1" points="721.8,544.2 721.8,579.6 732.7,572.6 732.7,544.2 	"/>
	<polygon class="st1" points="749.6,544.2 749.6,561.6 760.4,554.6 760.4,544.2 	"/>
	<polygon class="st1" points="749.6,574.5 749.6,610.6 760.4,610.6 760.4,567.5 	"/>
	<polygon class="st1" points="707.9,601.6 707.9,610.6 718.8,610.6 718.8,594.5 	"/>
	<polygon class="st1" points="916.1,544.2 916.1,588.7 927,581.6 927,544.2 	"/>
	<polygon class="st1" points="930,544.2 930,579.6 940.9,572.6 940.9,544.2 	"/>
	<polygon class="st1" points="957.8,544.2 957.8,561.6 968.6,554.6 968.6,544.2 	"/>
	<polygon class="st1" points="930,592.6 930,610.6 940.9,610.6 940.9,585.5 	"/>
	<polygon class="st1" points="902.3,610.6 913.1,610.6 913.1,603.5 	"/>
	<rect x="1013.3" y="544.2" class="st1" width="10.8" height="66.4"/>
	<polygon class="st1" points="971.7,544.2 971.7,597.6 982.5,590.6 982.5,544.2 	"/>
	<polygon class="st1" points="985.6,544.2 985.6,588.7 996.4,581.6 996.4,544.2 	"/>
	<polygon class="st1" points="999.4,592.6 999.4,610.6 1010.3,610.6 1010.3,585.5 	"/>
	<polygon class="st1" points="985.6,601.6 985.6,610.6 996.4,610.6 996.4,594.5 	"/>
	<polygon class="st1" points="971.7,610.6 982.5,610.6 982.5,603.5 	"/>
	<polygon class="st1" points="374.8,474.9 374.8,510.2 385.6,503.2 385.6,474.9 	"/>
	<polygon class="st1" points="402.5,474.9 402.5,492.2 413.4,485.2 413.4,474.9 	"/>
	<polygon class="st1" points="402.5,505.1 402.5,541.2 413.4,541.2 413.4,498.1 	"/>
	<polygon class="st1" points="374.8,523.2 374.8,541.2 385.6,541.2 385.6,516.1 	"/>
	<polygon class="st1" points="360.9,532.2 360.9,541.2 371.8,541.2 371.7,525.1 	"/>
	<polygon class="st1" points="347,541.2 357.9,541.2 357.9,534.2 	"/>
	<polygon class="st1" points="430.3,474.9 430.3,519.3 441.2,512.2 441.2,474.9 	"/>
	<polygon class="st1" points="472,474.9 472,492.2 482.8,485.2 482.8,474.9 	"/>
	<polygon class="st1" points="444.2,523.2 444.2,541.2 455,541.2 455,516.1 	"/>
	<polygon class="st1" points="430.3,532.2 430.3,541.2 441.2,541.2 441.1,525.1 	"/>
	<polygon class="st1" points="499.7,474.9 499.7,519.3 510.6,512.2 510.6,474.9 	"/>
	<polygon class="st1" points="541.4,474.9 541.4,492.2 552.2,485.2 552.2,474.9 	"/>
	<polygon class="st1" points="499.7,532.2 499.7,541.2 510.6,541.2 510.6,525.1 	"/>
	<polygon class="st1" points="485.8,541.2 496.7,541.2 496.7,534.2 	"/>
	<polygon class="st1" points="610.8,505.1 610.8,541.2 621.6,541.2 621.6,498.1 	"/>
	<polygon class="st1" points="624.7,474.9 624.7,528.3 635.5,521.2 635.5,474.9 	"/>
	<polygon class="st1" points="680.2,505.1 680.2,541.2 691,541.2 691,498.1 	"/>
	<polygon class="st1" points="652.4,523.2 652.4,541.2 663.2,541.2 663.2,516.1 	"/>
	<polygon class="st1" points="638.5,532.2 638.5,541.2 649.4,541.2 649.4,525.1 	"/>
	<polygon class="st1" points="624.6,541.2 635.5,541.2 635.5,534.2 	"/>
	<polygon class="st1" points="694,541.2 704.9,541.2 704.9,534.2 	"/>
	<polygon class="st1" points="957.8,474.9 957.8,492.2 968.6,485.2 968.6,474.9 	"/>
	<polygon class="st1" points="957.8,505.1 957.8,541.2 968.6,541.2 968.6,498.1 	"/>
	<polygon class="st1" points="930,523.2 930,541.2 940.9,541.2 940.9,516.1 	"/>
	<polygon class="st1" points="916.1,532.2 916.1,541.2 927,541.2 927,525.1 	"/>
	<polygon class="st1" points="902.3,541.2 913.1,541.2 913.1,534.2 	"/>
	<polygon class="st1" points="971.7,474.9 971.7,528.3 982.5,521.2 982.5,474.9 	"/>
	<polygon class="st1" points="999.4,523.2 999.4,541.2 1010.3,541.2 1010.3,516.1 	"/>
	<polygon class="st1" points="971.7,541.2 982.5,541.2 982.5,534.2 	"/>
	<polygon class="st1" points="360.9,462.8 360.9,471.8 371.8,471.8 371.7,455.7 	"/>
	<polygon class="st1" points="472,435.8 472,471.8 482.8,471.8 482.8,428.7 	"/>
	<polygon class="st1" points="430.3,462.8 430.3,471.8 441.2,471.8 441.1,455.7 	"/>
	<polygon class="st1" points="416.4,471.8 427.3,471.8 427.3,464.8 	"/>
	<polygon class="st1" points="513.6,453.8 513.6,471.8 524.4,471.8 524.4,446.7 	"/>
	<polygon class="st1" points="499.7,462.8 499.7,471.8 510.6,471.8 510.6,455.7 	"/>
	<polygon class="st1" points="555.2,471.8 566.1,471.8 566.1,464.8 	"/>
</g>
</svg>
